<?xml version="1.0" encoding="UTF-8" standalone="yes"?>
<svg version="1.2" width="2730.6667" height="2730.6667" viewBox="0 0 2730.6667 2730.6667" baseProfile="tiny-ps" xmlns="http://www.w3.org/2000/svg">
  <title>bimi-svg-tiny-12-ps</title>
  <defs id="defs6"/>
  <g id="g8" transform="matrix(1.3333333,0,0,-1.3333333,0,2730.6667)">
    <g id="g10">
      <g id="g12">
        <g id="g18" transform="translate(1352.3242,1737.2334)">
          <path d="m 0,0 -1089.941,-861.316 c -36.279,-28.669 -88.931,-22.5 -117.601,13.779 l -91.196,115.404 c -28.67,36.279 -22.501,88.931 13.779,117.601 l 1089.94,861.316 c 36.28,28.669 88.931,22.5 117.601,-13.779 L 13.779,117.601 C 42.448,81.321 36.279,28.669 0,0" id="path20" fill="#e85624" fill-opacity="1" fill-rule="nonzero" stroke="none"/>
        </g>
        <g id="g22" transform="translate(1352.3242,1737.2334)">
          <path d="m 0,0 -1089.941,-861.316 c -36.279,-28.669 -88.931,-22.5 -117.601,13.779 l -91.196,115.404 c -28.67,36.279 -22.501,88.931 13.779,117.601 l 1089.94,861.316 c 36.28,28.669 88.931,22.5 117.601,-13.779 L 13.779,117.601 C 42.448,81.321 36.279,28.669 0,0 Z" id="path24" fill="none" stroke="#ffffff" stroke-width="2" stroke-linecap="butt" stroke-linejoin="miter" stroke-miterlimit="10" stroke-dasharray="none" stroke-opacity="1"/>
        </g>
        <g id="g26" transform="translate(1663.0889,1320.3569)">
          <path d="m 0,0 -1089.941,-861.316 c -36.279,-28.67 -88.931,-22.5 -117.601,13.779 l -91.196,115.404 c -28.67,36.28 -22.501,88.931 13.779,117.601 l 1089.94,861.316 c 36.28,28.67 88.931,22.5 117.601,-13.779 L 13.779,117.601 C 42.448,81.321 36.279,28.67 0,0" id="path28" fill="#f8be15" fill-opacity="1" fill-rule="nonzero" stroke="none"/>
        </g>
        <g id="g30" transform="translate(1663.0889,1320.3569)">
          <path d="m 0,0 -1089.941,-861.316 c -36.279,-28.67 -88.931,-22.5 -117.601,13.779 l -91.196,115.404 c -28.67,36.28 -22.501,88.931 13.779,117.601 l 1089.94,861.316 c 36.28,28.67 88.931,22.5 117.601,-13.779 L 13.779,117.601 C 42.448,81.321 36.279,28.67 0,0 Z" id="path32" fill="none" stroke="#ffffff" stroke-width="2" stroke-linecap="butt" stroke-linejoin="miter" stroke-miterlimit="10" stroke-dasharray="none" stroke-opacity="1"/>
        </g>
        <g id="g34" transform="translate(1985.3447,912.5625)">
          <path d="m 0,0 -1089.94,-861.316 c -36.28,-28.67 -88.932,-22.501 -117.601,13.779 l -91.197,115.403 c -28.67,36.28 -22.5,88.932 13.779,117.601 l 1089.94,861.316 c 36.281,28.67 88.932,22.501 117.602,-13.779 L 13.779,117.601 C 42.449,81.321 36.28,28.669 0,0" id="path36" fill="#74c6be" fill-opacity="1" fill-rule="nonzero" stroke="none"/>
        </g>
        <g id="g38" transform="translate(1985.3447,912.5625)">
          <path d="m 0,0 -1089.94,-861.316 c -36.28,-28.67 -88.932,-22.501 -117.601,13.779 l -91.197,115.403 c -28.67,36.28 -22.5,88.932 13.779,117.601 l 1089.94,861.316 c 36.281,28.67 88.932,22.501 117.602,-13.779 L 13.779,117.601 C 42.449,81.321 36.28,28.669 0,0 Z" id="path40" fill="none" stroke="#ffffff" stroke-width="2" stroke-linecap="butt" stroke-linejoin="miter" stroke-miterlimit="10" stroke-dasharray="none" stroke-opacity="1"/>
        </g>
      </g>
    </g>
    <text
       xml:space="preserve"
       transform="matrix(1,0,0,-0.98351626,517.666,617.4189)"
       style="font-variant:normal;font-weight:bold;font-stretch:condensed;font-size:1147.73px;font-family:'Myriad Pro Cond';-inkscape-font-specification:MyriadPro-BoldCond;writing-mode:lr-tb;fill:#414142;fill-opacity:1;fill-rule:nonzero;stroke:none"
       id="text44">18</text>  </g>
</svg>